<svg width="25" height="25" viewBox="0 0 25 25" fill="none" xmlns="http://www.w3.org/2000/svg">
<path fill-rule="evenodd" clip-rule="evenodd" d="M12.1765 14.5562V11.2082H20.6005C20.7265 11.7752 20.8255 12.3062 20.8255 13.0532C20.8255 18.1922 17.3785 21.8462 12.1855 21.8462C7.21755 21.8462 3.18555 17.8142 3.18555 12.8462C3.18555 7.87819 7.21755 3.84619 12.1855 3.84619C14.6155 3.84619 16.6495 4.73719 18.2065 6.19519L15.6505 8.67919C15.0025 8.06719 13.8685 7.34719 12.1855 7.34719C9.20655 7.34719 6.77655 9.82219 6.77655 12.8552C6.77655 15.8882 9.20655 18.3632 12.1855 18.3632C15.6325 18.3632 16.9015 15.9782 17.1355 14.5652H12.1765V14.5562Z" fill="white"/>
</svg>
