<svg width="25" height="24" viewBox="0 0 25 24" fill="none" xmlns="http://www.w3.org/2000/svg">
<path d="M9.53903 19.3181C16.3313 19.3181 20.048 13.6855 20.048 8.80914C20.048 8.65067 20.048 8.49221 20.0408 8.33375C20.7611 7.81514 21.3878 7.15968 21.8848 6.41778C21.2221 6.7131 20.509 6.90758 19.7599 7.00121C20.5234 6.54743 21.1069 5.81994 21.3878 4.95559C20.6747 5.38056 19.8824 5.68308 19.0396 5.84875C18.3626 5.12846 17.4046 4.68188 16.3458 4.68188C14.3073 4.68188 12.6507 6.33855 12.6507 8.37696C12.6507 8.66508 12.6867 8.94599 12.7443 9.2197C9.67588 9.06844 6.95319 7.59185 5.13086 5.35896C4.81394 5.90637 4.63387 6.54023 4.63387 7.2173C4.63387 8.49941 5.28933 9.63026 6.27612 10.2929C5.67108 10.2713 5.10205 10.1057 4.60505 9.83194C4.60505 9.84635 4.60505 9.86076 4.60505 9.88237C4.60505 11.6687 5.87996 13.1669 7.56544 13.5054C7.25571 13.5918 6.93158 13.6351 6.59305 13.6351C6.35535 13.6351 6.12486 13.6135 5.90157 13.5702C6.36976 15.0396 7.73831 16.1057 9.35175 16.1345C8.08405 17.1285 6.49221 17.7191 4.76352 17.7191C4.4682 17.7191 4.17288 17.7047 3.88477 17.6687C5.51262 18.7059 7.4574 19.3181 9.53903 19.3181Z" fill="white"/>
</svg>
